nRows=35
nColumns=19
inDegrees=yes
endheader
time	ground_force_vx	ground_force_vy	ground_force_vz	ground_force_px	ground_force_py	ground_force_pz	1_ground_force_vx	1_ground_force_vy	1_ground_force_vz	1_ground_force_px	1_ground_force_py	1_ground_force_pz	ground_torque_x	ground_torque_y	ground_torque_z	1_ground_torque_x	1_ground_torque_y	1_ground_torque_z
16.686	-0.139369314014013	1.80628103683671	0.0875631028915176	0.300000012	0	0.609999999	0.030016944848557	0.854094386353765	-0.0695383569764186	0.300000012	0	0.2050000005	0.320859	-0.106038	-0.320859	0.095672	0.006492	-0.095672
16.687	-0.141287298321676	1.80704648803984	0.0870257327405385	0.300000012	0	0.609999999	0.030981570317205	0.850916945814618	-0.070397181453913	0.300000012	0	0.2050000005	0.31505	-0.111809	-0.31505	0.099863	0.010099	-0.099863
16.688	-0.14320350140497	1.80784182693476	0.0864868560753928	0.300000012	0	0.609999999	0.0320954797687284	0.848081679290011	-0.0712987821055412	0.300000012	0	0.2050000005	0.320304	-0.106038	-0.320304	0.092112	0.010099	-0.092112
16.689	-0.145093618964407	1.8086253054062	0.0859431816015335	0.300000012	0	0.609999999	0.0333364983737587	0.84563835134403	-0.0722403233398138	0.300000012	0	0.2050000005	0.321674	-0.110366	-0.321674	0.095197	0.007935	-0.095197
16.69	-0.146931901694397	1.8093552821083	0.0853920632877857	0.300000012	0	0.609999999	0.034677301553617	0.843627879918702	-0.0732225477662024	0.300000012	0	0.2050000005	0.299814	-0.116137	-0.299814	0.10284	0.013706	-0.10284
16.691	-0.148691910483483	1.80999242671367	0.0848319820283211	0.300000012	0	0.609999999	0.0360863278462028	0.842081968900351	-0.0742496178039654	0.300000012	0	0.2050000005	0.307546	-0.108202	-0.307546	0.087179	0.010099	-0.087179
16.692	-0.150347332380226	1.81050208359118	0.0842628846496466	0.300000012	0	0.609999999	0.0375289770858182	0.841023078644159	-0.0753286622135828	0.300000012	0	0.2050000005	0.294724	-0.110366	-0.294724	0.076096	0.011542	-0.076096
16.693	-0.151872797607333	1.81085662141345	0.0836863507833821	0.300000012	0	0.609999999	0.0389690421696304	0.840464633118783	-0.0764690610876498	0.300000012	0	0.2050000005	0.306602	-0.111809	-0.306602	0.083821	0.011542	-0.083821
16.694	-0.153244640534185	1.81103758401386	0.0831055782942978	0.300000012	0	0.609999999	0.040370303068645	0.840411358098386	-0.0776815191284658	0.300000012	0	0.2050000005	0.31732	-0.098825	-0.31732	0.078047	0.010099	-0.078047
16.695	-0.154441555742636	1.81103746107004	0.0825251982066918	0.300000012	0	0.609999999	0.0416981951307938	0.840859658269927	-0.0789769897225257	0.300000012	0	0.2050000005	0.293853	-0.100267	-0.293853	0.083285	0.01082	-0.083285
16.696	-0.155445112790329	1.810860915287	0.0819509472294262	0.300000012	0	0.609999999	0.042921451966199	0.841797969004779	-0.0803655207956116	0.300000012	0	0.2050000005	0.289046	-0.108202	-0.289046	0.087113	0.005771	-0.087113
16.697	-0.15624010847286	1.81052533489687	0.0813892377915136	0.300000012	0	0.609999999	0.0440136179831852	0.843207055049289	-0.0818550973413246	0.300000012	0	0.2050000005	0.281802	-0.110366	-0.281802	0.07837	0.009378	-0.07837
16.698	-0.156814751689704	1.81006062433753	0.0808466710350919	0.300000012	0	0.609999999	0.044954328260545	0.845060266358523	-0.0834505546452273	0.300000012	0	0.2050000005	0.29855	-0.11253	-0.29855	0.084018	0.01082	-0.084018
16.699	-0.157160691793295	1.80950819853421	0.0803295378613589	0.300000012	0	0.609999999	0.0457302646013833	0.847323793687	-0.0851526305318946	0.300000012	0	0.2050000005	0.307607	-0.113252	-0.307607	0.092642	0.01082	-0.092642
16.7	-0.157272915069497	1.80891920306333	0.079843348233047	0.300000012	0	0.609999999	0.0463357162046151	0.849956987726842	-0.0869572147572235	0.300000012	0	0.2050000005	0.300603	-0.106038	-0.300603	0.097313	0.008656	-0.097313
16.701	-0.15714954460023	1.80835203910403	0.0793924212452218	0.300000012	0	0.609999999	0.0467727003230416	0.85291281226375	-0.0888548398095306	0.300000012	0	0.2050000005	0.296866	-0.110366	-0.296866	0.086789	0.010099	-0.086789
16.702	-0.156791585379965	1.80786932411819	0.0789795596284065	0.300000012	0	0.609999999	0.0470506304398786	0.856138493563579	-0.090830441257207	0.300000012	0	0.2050000005	0.297526	-0.118301	-0.297526	0.080219	0.000721	-0.080219
16.703	-0.156202658653448	1.80753446279789	0.0786058236213484	0.300000012	0	0.609999999	0.0471855538453952	0.859576407353263	-0.0928633990523946	0.300000012	0	0.2050000005	0.316611	-0.118301	-0.316611	0.080499	-0.001443	-0.080499
16.704	-0.155388766678143	1.80740803492863	0.078270411374894	0.300000012	0	0.609999999	0.04719901331982	0.863165215795495	-0.0949278554394204	0.300000012	0	0.2050000005	0.311751	-0.11253	-0.311751	0.080101	-0.003607	-0.080101
16.705	-0.154358121412882	1.80754422535042	0.0779706466053053	0.300000012	0	0.609999999	0.0471166150395538	0.866841235274914	-0.096993291486029	0.300000012	0	0.2050000005	0.300282	-0.107481	-0.300282	0.08221	0.001443	-0.08221
16.706	-0.153121058334224	1.8079875249891	0.0777020690832852	0.300000012	0	0.609999999	0.0469664034855381	0.870539986949681	-0.0990253333627211	0.300000012	0	0.2050000005	0.305911	-0.113973	-0.305911	0.076733	0.007213	-0.076733
16.707	-0.151690040647354	1.80876992047798	0.0774586194295159	0.300000012	0	0.609999999	0.0467771520695744	0.874197860152688	-0.100986751414189	0.300000012	0	0.2050000005	0.300109	-0.120465	-0.300109	0.078523	0.003607	-0.078523
16.708	-0.150079741292312	1.80990876317337	0.0772329062403607	0.300000012	0	0.609999999	0.0465766753622419	0.877753806564031	-0.102838609453218	0.300000012	0	0.2050000005	0.302786	-0.115416	-0.302786	0.078516	-0.000721	-0.078516
16.709	-0.148307172697536	1.8114054669721	0.0770165406005998	0.300000012	0	0.609999999	0.0463902571283972	0.881150981546422	-0.10454151795257	0.300000012	0	0.2050000005	0.328919	-0.11758	-0.328919	0.081637	0.008656	-0.081637
16.71	-0.146391819857325	1.81324512996256	0.0768005206188422	0.300000012	0	0.609999999	0.0462392711508587	0.884338257266673	-0.10605694222795	0.300000012	0	0.2050000005	0.304025	-0.125515	-0.304025	0.079517	0.006492	-0.079517
16.711	-0.144355723491127	1.81539711093193	0.0765756469943563	0.300000012	0	0.609999999	0.0461400526919764	0.887271547801455	-0.107348514785533	0.300000012	0	0.2050000005	0.312435	-0.120465	-0.312435	0.082531	-0.003607	-0.082531
16.712	-0.142223458610699	1.81781652322741	0.0763329500444227	0.300000012	0	0.609999999	0.0461030603289255	0.889914905884259	-0.108383299690766	0.300000012	0	0.2050000005	0.296251	-0.111809	-0.296251	0.0861	0.002164	-0.0861
16.713	-0.140021960561763	1.82044654176327	0.0760641091581081	0.300000012	0	0.609999999	0.0461323523211123	0.892241370423312	-0.109132956627905	0.300000012	0	0.2050000005	0.27667	-0.118301	-0.27667	0.087877	-0.001443	-0.087877
16.714	-0.13778016501295	1.82322136058219	0.0757618470881341	0.300000012	0	0.609999999	0.0462253886657935	0.894233559773442	-0.10957475423116	0.300000012	0	0.2050000005	0.287831	-0.114694	-0.287831	0.078835	-0.009378	-0.078835
16.715	-0.135528448625857	1.82606959386357	0.0754202834236714	0.300000012	0	0.609999999	0.0463731585981662	0.895884015201505	-0.109692387294107	0.300000012	0	0.2050000005	0.307869	-0.111809	-0.307869	0.084825	0.002164	-0.084825
16.716	-0.133297880446696	1.82891788641762	0.0750352335499514	0.300000012	0	0.609999999	0.0465606222386003	0.897195300663443	-0.109476561212949	0.300000012	0	0.2050000005	0.30973	-0.11253	-0.30973	0.086975	0.002164	-0.086975
16.717	-0.131119317162189	1.83169449225563	0.0746044411187454	0.300000012	0	0.609999999	0.0467674434919032	0.898179859281675	-0.108925319385375	0.300000012	0	0.2050000005	0.288157	-0.116137	-0.288157	0.077744	0.002164	-0.077744
16.718	-0.129022395184044	1.83433259159449	0.0741277335422893	0.300000012	0	0.609999999	0.0469689789998623	0.898859615996272	-0.108044104372459	0.300000012	0	0.2050000005	0.27577	-0.113252	-0.27577	0.071596	0.007935	-0.071596
16.719	-0.127034486660451	1.83677314576577	0.0736070915633434	0.300000012	0	0.609999999	0.0471374755634009	0.899265303646225	-0.106845559876536	0.300000012	0	0.2050000005	0.281472	-0.115416	-0.281472	0.070585	0.011542	-0.070585
16.72	-0.125179693527165	1.83896713262736	0.073046625956535	0.300000012	0	0.609999999	0.0472434172281956	0.899435481189676	-0.105349096051045	0.300000012	0	0.2050000005	0.281672	-0.111809	-0.281672	0.069706	0.007935	-0.069706
